<?xml version="1.0" standalone="no"?>
<!DOCTYPE svg PUBLIC "-//W3C//DTD SVG 20010904//EN"
 "http://www.w3.org/TR/2001/REC-SVG-20010904/DTD/svg10.dtd">
<svg version="1.0" xmlns="http://www.w3.org/2000/svg"
 width="512.000000pt" height="512.000000pt" viewBox="0 0 512.000000 512.000000"
 preserveAspectRatio="xMidYMid meet">
<metadata>
Created by potrace 1.14, written by Peter Selinger 2001-2017
</metadata>
<g transform="translate(0.000000,512.000000) scale(0.100000,-0.100000)"
fill="#000000" stroke="none">
<path d="M2318 5116 c-1 -2 -43 -7 -93 -10 -119 -9 -310 -33 -415 -53 -47 -8
-94 -16 -105 -18 -11 -1 -31 -5 -45 -8 -14 -4 -65 -16 -115 -28 -253 -59 -544
-157 -772 -259 -213 -96 -484 -245 -550 -303 -133 -117 -171 -326 -89 -493 74
-149 228 -239 393 -228 95 6 123 17 313 124 195 109 429 209 659 281 134 42
395 104 476 114 28 4 57 8 65 10 8 2 42 7 75 10 33 4 67 8 75 10 28 8 245 18
370 18 161 0 328 -10 460 -29 58 -8 119 -17 136 -19 62 -9 310 -66 394 -91
293 -88 558 -203 826 -358 114 -66 227 -86 334 -61 119 27 228 117 283 232 30
63 32 76 32 173 0 97 -2 110 -31 170 -46 95 -97 146 -220 220 -126 74 -354
189 -504 253 -127 54 -355 137 -376 137 -8 0 -22 4 -32 10 -29 16 -335 96
-437 114 -16 3 -43 8 -58 12 -16 3 -38 7 -50 9 -12 2 -69 10 -127 18 -58 9
-136 19 -175 22 -38 4 -81 9 -95 12 -30 4 -597 13 -602 9z"/>
<path d="M2397 3983 c-1 -1 -43 -4 -92 -8 -50 -3 -102 -8 -116 -11 -15 -2 -47
-6 -70 -9 -24 -3 -55 -7 -69 -10 -14 -3 -41 -7 -60 -10 -309 -50 -743 -205
-1017 -363 -170 -98 -215 -118 -324 -141 l-77 -16 40 -70 c55 -96 71 -123 188
-330 56 -99 105 -184 109 -188 4 -4 27 13 50 38 116 126 287 221 451 252 56
10 240 10 300 -1 275 -48 527 -265 621 -534 43 -121 57 -289 35 -412 -44 -246
-220 -481 -439 -587 -88 -43 -110 -50 -229 -77 -26 -6 -21 -14 369 -673 217
-368 405 -686 418 -708 48 -85 67 -115 74 -115 4 0 36 51 71 112 36 62 129
223 208 358 78 134 142 249 142 255 0 5 -19 21 -41 35 -67 41 -181 163 -231
247 -111 187 -144 408 -93 620 26 107 106 259 180 340 172 189 387 283 632
277 125 -3 258 -36 355 -89 l26 -15 98 167 c128 221 183 315 194 333 6 8 18
31 29 50 10 19 109 189 219 378 178 304 197 342 177 342 -67 0 -229 62 -342
132 -25 15 -33 16 -34 6 0 -7 -2 -20 -4 -28 -1 -8 -5 -28 -8 -45 -16 -95 -88
-250 -155 -335 -157 -197 -371 -306 -617 -315 -197 -8 -384 53 -535 173 -166
132 -266 304 -305 527 -7 38 -7 178 0 230 6 46 29 133 50 185 l13 36 -95 -1
c-52 0 -95 -1 -96 -2z"/>
<path d="M2913 3947 c-81 -87 -117 -289 -78 -432 81 -300 414 -464 700 -343
146 61 255 185 300 340 18 64 24 193 9 207 -20 19 -304 119 -444 156 -112 30
-294 66 -405 81 -27 3 -53 8 -56 10 -3 2 -15 -7 -26 -19z"/>
<path d="M1398 2803 c-160 -54 -279 -174 -334 -335 -23 -67 -27 -221 -8 -286
89 -300 393 -460 682 -358 90 32 206 125 257 207 108 170 106 397 -4 566 -126
193 -375 279 -593 206z"/>
<path d="M3320 1949 c-73 -15 -87 -20 -148 -50 -76 -37 -175 -133 -216 -208
-49 -92 -66 -163 -62 -270 3 -107 25 -181 76 -262 37 -56 147 -162 164 -156 9
3 103 159 200 331 13 23 91 157 174 298 108 185 147 260 139 267 -47 38 -241
68 -327 50z"/>
</g>
</svg>
